# xmcd
#
# Track frame offsets:
#	150
#	18938
#	38902
#	75135
#	96225
#	116962
#	160557
#	201433
#	240326
#	257970
#	291879
#
# Disc length: 4387 seconds
#
# Revision: 1
# Processed by: cddbd v1.5.2PL0 Copyright (c) Steve Scherf et al.
# Submitted via: audiograbber 1.83.01
#
DISCID=8a11210b
DTITLE=Grateful Dead - 80-05-14 Nassau Veterans Memorial Coliseum, Uniondale NY
DYEAR=1900
DGENRE=
TTITLE0=Alabama Getaway
TTITLE1=Promised Land
TTITLE2=Candyman
TTITLE3=Mexicali Blues
TTITLE4=El Paso
TTITLE5=Tennessee Jed
TTITLE6=Let It Grow
TTITLE7=Althea
TTITLE8=Easy To Love You
TTITLE9=The Music Never Stopped
TTITLE10=Feel Like A Stranger
EXTD=
EXTT0=
EXTT1=
EXTT2=
EXTT3=
EXTT4=
EXTT5=
EXTT6=
EXTT7=
EXTT8=
EXTT9=
EXTT10=
PLAYORDER=
